<svg width="737" height="737" viewBox="0 0 737 737" fill="none" xmlns="http://www.w3.org/2000/svg">
<circle cx="368.5" cy="368.5" r="368.5" fill="white"/>
<path d="M612.805 612.805C563.763 661.847 501.097 694.994 432.958 707.934C364.82 720.873 294.365 713.006 230.759 685.356C167.153 657.706 113.341 611.552 76.3243 552.901C39.3075 494.249 20.7996 425.814 23.2084 356.5C25.6173 287.186 48.8314 220.201 89.8305 164.261C130.83 108.321 187.716 66.0144 253.088 42.8465C318.46 19.6785 389.291 16.7213 456.367 34.3598C523.442 51.9982 583.657 89.4156 629.176 141.744L581.895 182.872C544.632 140.035 495.339 109.404 440.43 94.9649C385.52 80.5257 327.536 82.9465 274.021 101.912C220.506 120.878 173.937 155.511 140.375 201.305C106.812 247.099 87.8081 301.935 85.8362 358.677C83.8643 415.419 99.0153 471.441 129.318 519.455C159.621 567.468 203.673 605.25 255.742 627.886C307.811 650.521 365.488 656.961 421.267 646.369C477.047 635.776 528.347 608.641 568.494 568.494L612.805 612.805Z" fill="#FA621B"/>
<circle cx="369" cy="369" r="266" fill="#FA621B"/>
<path d="M247.438 498.5C247.438 520.833 235.771 532 212.438 532C201.104 532 192.104 529.167 185.438 523.5C178.771 517.833 175.438 509.5 175.438 498.5V292C175.438 252.667 183.771 223 200.438 203C217.438 182.667 242.438 172.5 275.438 172.5C299.771 172.5 319.938 177.5 335.938 187.5C351.938 197.5 362.604 211.833 367.938 230.5C373.271 211.833 383.938 197.5 399.938 187.5C415.938 177.5 436.438 172.5 461.438 172.5C495.438 172.5 520.604 182.333 536.938 202C553.271 221.333 561.438 251.333 561.438 292V493.5C561.438 507.167 558.771 517 553.438 523C548.104 529 539.104 532 526.438 532C513.771 532 504.438 529 498.438 523C492.438 516.667 489.438 506.833 489.438 493.5V288C489.438 255 475.271 238.5 446.938 238.5C432.604 238.5 421.938 243.333 414.938 253C407.938 262.333 404.438 277.333 404.438 298V488.5C404.438 502.167 401.771 512 396.438 518C391.104 524 382.104 527 369.438 527C356.771 527 347.438 524 341.438 518C335.438 511.667 332.438 501.833 332.438 488.5V298C332.438 258.333 318.271 238.5 289.938 238.5C261.604 238.5 247.438 255 247.438 288V498.5Z" fill="white"/>
</svg>
