<svg width="1088" height="1088" viewBox="0 0 1088 1088" fill="none" xmlns="http://www.w3.org/2000/svg">
<g clip-path="url(#clip0_5_9)" filter="url(#filter0_d_5_9)">
<rect width="1080" height="1080" transform="translate(4)" fill="#FFC107"/>
<path d="M879.854 875.854C812.296 943.412 725.97 989.074 632.106 1006.9C538.242 1024.72 441.186 1013.89 353.566 975.796C265.945 937.707 191.817 874.128 140.824 793.333C89.8317 712.537 64.336 618.265 67.6543 522.781C70.9726 427.297 102.951 335.022 159.43 257.962C215.908 180.901 294.271 122.622 384.325 90.7069C474.378 58.7919 571.952 54.7182 664.352 79.0161C756.752 103.314 839.7 154.858 902.405 226.943L837.274 283.599C785.942 224.589 718.039 182.394 642.398 162.503C566.757 142.612 486.881 145.947 413.161 172.073C339.441 198.2 275.291 245.908 229.057 308.992C182.822 372.076 156.644 447.614 153.927 525.779C151.211 603.944 172.082 681.118 213.826 747.259C255.569 813.4 316.253 865.447 387.981 896.628C459.709 927.809 539.161 936.681 616 922.089C692.84 907.498 763.509 870.118 818.813 814.813L879.854 875.854Z" fill="white"/>
<path d="M1084 540C1084 838.234 842.234 1080 544 1080C245.766 1080 4 838.234 4 540C4 241.766 245.766 0 544 0C842.234 0 1084 241.766 1084 540ZM44.4307 540C44.4307 815.905 268.095 1039.57 544 1039.57C819.905 1039.57 1043.57 815.905 1043.57 540C1043.57 264.095 819.905 40.4307 544 40.4307C268.095 40.4307 44.4307 264.095 44.4307 540Z" fill="white"/>
<circle cx="544" cy="540" r="366.429" fill="white"/>
<path d="M398.725 713.6C398.725 740.4 384.725 753.8 356.725 753.8C343.125 753.8 332.325 750.4 324.325 743.6C316.325 736.8 312.325 726.8 312.325 713.6V465.8C312.325 418.6 322.325 383 342.325 359C362.725 334.6 392.725 322.4 432.325 322.4C461.525 322.4 485.725 328.4 504.925 340.4C524.125 352.4 536.925 369.6 543.325 392C549.725 369.6 562.525 352.4 581.725 340.4C600.925 328.4 625.525 322.4 655.525 322.4C696.325 322.4 726.525 334.2 746.125 357.8C765.725 381 775.525 417 775.525 465.8V707.6C775.525 724 772.325 735.8 765.925 743C759.525 750.2 748.725 753.8 733.525 753.8C718.325 753.8 707.125 750.2 699.925 743C692.725 735.4 689.125 723.6 689.125 707.6V461C689.125 421.4 672.125 401.6 638.125 401.6C620.925 401.6 608.125 407.4 599.725 419C591.325 430.2 587.125 448.2 587.125 473V701.6C587.125 718 583.925 729.8 577.525 737C571.125 744.2 560.325 747.8 545.125 747.8C529.925 747.8 518.725 744.2 511.525 737C504.325 729.4 500.725 717.6 500.725 701.6V473C500.725 425.4 483.725 401.6 449.725 401.6C415.725 401.6 398.725 421.4 398.725 461V713.6Z" fill="#FFC107"/>
</g>
<defs>
<filter id="filter0_d_5_9" x="0" y="0" width="1088" height="1088" filterUnits="userSpaceOnUse" color-interpolation-filters="sRGB">
<feFlood flood-opacity="0" result="BackgroundImageFix"/>
<feColorMatrix in="SourceAlpha" type="matrix" values="0 0 0 0 0 0 0 0 0 0 0 0 0 0 0 0 0 0 127 0" result="hardAlpha"/>
<feOffset dy="4"/>
<feGaussianBlur stdDeviation="2"/>
<feComposite in2="hardAlpha" operator="out"/>
<feColorMatrix type="matrix" values="0 0 0 0 0 0 0 0 0 0 0 0 0 0 0 0 0 0 0.25 0"/>
<feBlend mode="normal" in2="BackgroundImageFix" result="effect1_dropShadow_5_9"/>
<feBlend mode="normal" in="SourceGraphic" in2="effect1_dropShadow_5_9" result="shape"/>
</filter>
<clipPath id="clip0_5_9">
<rect width="1080" height="1080" fill="white" transform="translate(4)"/>
</clipPath>
</defs>
</svg>
