<svg width="375" height="375" viewBox="0 0 375 375" fill="none" xmlns="http://www.w3.org/2000/svg">
<path d="M375 187.5C375 291.053 291.053 375 187.5 375C83.9466 375 0 291.053 0 187.5C0 83.9466 83.9466 0 187.5 0C291.053 0 375 83.9466 375 187.5ZM18.6494 187.5C18.6494 280.754 94.2464 356.351 187.5 356.351C280.754 356.351 356.351 280.754 356.351 187.5C356.351 94.2464 280.754 18.6494 187.5 18.6494C94.2464 18.6494 18.6494 94.2464 18.6494 187.5Z" fill="white"/>
<path d="M306.499 84.6371C284.963 59.739 256.188 42.1895 224.193 34.4401C192.199 26.6907 158.582 29.1285 128.04 41.4129C97.4985 53.6974 71.5563 75.2149 53.8379 102.96C36.1194 130.705 27.5096 163.291 29.2112 196.167C30.9128 229.043 42.8407 260.566 63.3288 286.333C83.8169 312.101 111.842 330.825 143.489 339.891C175.136 348.956 208.824 347.911 239.848 336.9C270.872 325.889 297.681 305.462 316.532 278.474L303.648 269.475C286.673 293.779 262.53 312.174 234.592 322.09C206.653 332.005 176.316 332.947 147.817 324.783C119.317 316.619 94.0798 299.757 75.6296 276.553C57.1793 253.348 46.4377 224.96 44.9054 195.354C43.3731 165.749 51.1265 136.403 67.0826 111.418C83.0387 86.4329 106.401 67.0556 133.905 55.993C161.409 44.9304 191.682 42.735 220.494 49.7136C249.307 56.6923 275.22 72.4962 294.614 94.9179L306.499 84.6371Z" fill="white"/>
<path d="M80.3966 188.42C80.3966 199.527 81.75 207.507 84.4566 212.36C87.1633 217.12 91.1766 219.5 96.4966 219.5C99.8566 219.5 102.797 219.267 105.317 218.8C107.837 218.24 110.123 217.96 112.177 217.96C115.91 217.96 118.617 218.753 120.297 220.34C121.977 221.833 122.817 223.793 122.817 226.22C122.817 229.393 121.65 231.82 119.317 233.5C117.077 235.18 114.183 236.347 110.637 237C107.183 237.653 103.637 237.98 99.9966 237.98C89.9166 237.98 81.89 236.113 75.9166 232.38C70.0366 228.647 65.79 223.14 63.1766 215.86C60.6566 208.487 59.3966 199.34 59.3966 188.42C59.3966 177.5 60.6566 168.26 63.1766 160.7C65.79 153.047 70.0366 147.26 75.9166 143.34C81.89 139.42 89.9166 137.46 99.9966 137.46C103.637 137.46 107.183 137.787 110.637 138.44C114.183 139.093 117.077 140.26 119.317 141.94C121.65 143.62 122.817 146.047 122.817 149.22C122.817 151.553 121.977 153.513 120.297 155.1C118.617 156.687 115.91 157.48 112.177 157.48C110.123 157.48 107.837 157.247 105.317 156.78C102.797 156.22 99.8566 155.94 96.4966 155.94C89.9633 155.94 85.6233 158.6 83.4766 163.92C81.4233 169.147 80.3966 177.313 80.3966 188.42ZM169.818 238.12C161.698 238.12 154.791 236.533 149.098 233.36C143.404 230.093 139.064 224.773 136.078 217.4C133.184 210.027 131.738 200.04 131.738 187.44C131.738 174.84 133.184 164.9 136.078 157.62C139.064 150.34 143.404 145.16 149.098 142.08C154.791 139 161.698 137.46 169.818 137.46C178.031 137.46 184.938 139 190.538 142.08C196.231 145.16 200.524 150.34 203.418 157.62C206.404 164.9 207.898 174.84 207.898 187.44C207.898 200.04 206.404 210.027 203.418 217.4C200.524 224.773 196.231 230.093 190.538 233.36C184.938 236.533 178.031 238.12 169.818 238.12ZM169.818 219.64C173.551 219.64 176.724 218.753 179.338 216.98C182.044 215.207 184.098 211.987 185.498 207.32C186.991 202.653 187.738 196.027 187.738 187.44C187.738 178.76 186.991 172.18 185.498 167.7C184.098 163.127 182.044 160.047 179.338 158.46C176.724 156.78 173.551 155.94 169.818 155.94C166.178 155.94 163.004 156.78 160.298 158.46C157.591 160.047 155.491 163.127 153.998 167.7C152.598 172.18 151.898 178.76 151.898 187.44C151.898 196.027 152.598 202.653 153.998 207.32C155.491 211.987 157.591 215.207 160.298 216.98C163.004 218.753 166.178 219.64 169.818 219.64ZM243.988 228.74C243.988 234.993 240.722 238.12 234.188 238.12C231.015 238.12 228.495 237.327 226.628 235.74C224.762 234.153 223.828 231.82 223.828 228.74V170.92C223.828 159.907 226.162 151.6 230.828 146C235.588 140.307 242.588 137.46 251.828 137.46C258.642 137.46 264.288 138.86 268.768 141.66C273.248 144.46 276.235 148.473 277.728 153.7C279.222 148.473 282.208 144.46 286.688 141.66C291.168 138.86 296.908 137.46 303.908 137.46C313.428 137.46 320.475 140.213 325.048 145.72C329.622 151.133 331.908 159.533 331.908 170.92V227.34C331.908 231.167 331.162 233.92 329.668 235.6C328.175 237.28 325.655 238.12 322.108 238.12C318.562 238.12 315.948 237.28 314.268 235.6C312.588 233.827 311.748 231.073 311.748 227.34V169.8C311.748 160.56 307.782 155.94 299.848 155.94C295.835 155.94 292.848 157.293 290.888 160C288.928 162.613 287.948 166.813 287.948 172.6V225.94C287.948 229.767 287.202 232.52 285.708 234.2C284.215 235.88 281.695 236.72 278.148 236.72C274.602 236.72 271.988 235.88 270.308 234.2C268.628 232.427 267.788 229.673 267.788 225.94V172.6C267.788 161.493 263.822 155.94 255.888 155.94C247.955 155.94 243.988 160.56 243.988 169.8V228.74Z" fill="white"/>
</svg>
